<svg width="256" height="256" viewBox="0 0 256 256" fill="none" xmlns="http://www.w3.org/2000/svg">
<path d="M104.945 143C100.102 147.179 96.3307 150.558 94.625 152.098C93.9838 152.677 93.151 153 92.2871 153C89.309 153 87.7288 149.508 89.7207 147.294C90.8755 146.011 92.1888 144.563 93.6123 143H104.945Z" fill="#00C0E8"/>
<path d="M118.078 132C113.355 135.824 108.812 139.667 104.949 143H93.6084C96.6367 139.675 100.176 135.838 103.808 132H118.078Z" fill="#CB30E0"/>
<path d="M131.035 122C126.822 125.055 122.376 128.52 118.078 132H103.808C107.079 128.542 110.427 125.084 113.545 122H131.035Z" fill="#FF383C"/>
<path d="M146.013 112C141.358 114.928 136.903 117.842 133.13 120.5C132.439 120.987 131.741 121.488 131.035 122H113.545C114.604 120.952 115.636 119.947 116.63 119C118.984 116.759 121.603 114.383 124.309 112H146.013Z" fill="#FF8D28"/>
<path d="M164.183 101C158.497 104.337 152.084 108.181 146.013 112H124.309C128.65 108.176 133.212 104.334 137.249 101H164.183Z" fill="#FFCC00"/>
<path d="M173.91 91C175.974 91.0003 176.709 93.7676 174.916 94.79C171.978 96.4656 168.269 98.6023 164.184 101H137.251C139.869 98.8382 142.264 96.8885 144.237 95.2988C147.721 92.4921 152.061 91 156.535 91H173.91Z" fill="#34C759"/>
</svg>
