<svg width="256" height="256" viewBox="0 0 256 256" fill="none" xmlns="http://www.w3.org/2000/svg">
<path d="M160.674 143C162.097 144.563 163.411 146.011 164.565 147.294C166.557 149.508 164.977 153 161.999 153C161.135 153 160.302 152.677 159.661 152.098C157.955 150.558 154.184 147.179 149.341 143H160.674Z" fill="#00C0E8"/>
<path d="M150.479 132C154.11 135.838 157.649 139.675 160.678 143H149.337C145.474 139.667 140.931 135.824 136.208 132H150.479Z" fill="#CB30E0"/>
<path d="M140.741 122C143.859 125.084 147.207 128.542 150.479 132H136.208C131.91 128.52 127.464 125.055 123.251 122H140.741Z" fill="#FF383C"/>
<path d="M130.159 112C132.752 114.383 135.303 116.759 137.656 119C138.651 119.947 139.682 120.952 140.741 122H123.251C122.545 121.488 121.847 120.987 121.156 120.5C117.383 117.842 112.784 114.928 107.903 112H130.159Z" fill="#FF8D28"/>
<path d="M117.992 101C121.731 104.333 125.999 108.176 130.159 112H107.903C101.537 108.181 94.6912 104.337 88.5762 101H117.992Z" fill="#FFCC00"/>
<path d="M99.1777 91C104.001 91 108.66 92.739 112.276 95.9297C113.935 97.3935 115.879 99.1157 117.992 101H88.5752C84.2284 98.628 80.2516 96.511 77.0771 94.8438C75.214 93.8652 75.922 91.0002 78.0264 91H99.1777Z" fill="#34C759"/>
</svg>
