<svg width="256" height="256" viewBox="0 0 256 256" fill="none" xmlns="http://www.w3.org/2000/svg">
<path d="M119.388 194.907L105.217 205.13C100.897 208.536 94.8266 208.608 90.4258 205.308C87.171 202.867 87.1939 197.977 90.4717 195.567L105.895 184.907L119.388 194.907ZM164.916 195.567C168.194 197.977 168.217 202.867 164.962 205.308C160.561 208.608 154.491 208.536 150.171 205.13L136 194.907L149.493 184.907L164.916 195.567ZM99.3887 180.249L85.2178 190.474C80.8977 193.879 74.8275 193.952 70.4268 190.652C67.172 188.21 67.1949 183.32 70.4727 180.909L85.8955 170.25L99.3887 180.249ZM184.915 180.909C188.193 183.32 188.216 188.21 184.961 190.652C180.56 193.952 174.49 193.879 170.17 190.474L155.999 180.249L169.492 170.25L184.915 180.909ZM79.3887 166.249L65.2178 176.474C60.8978 179.879 54.8275 179.952 50.4268 176.652C47.172 174.21 47.1949 169.32 50.4727 166.909L65.8956 156.25L79.3887 166.249ZM204.915 166.909C208.193 169.32 208.216 174.21 204.961 176.652C200.56 179.952 194.49 179.879 190.17 176.474L175.999 166.249L189.492 156.25L204.915 166.909ZM59.3887 152.249L45.2179 162.474C40.8978 165.879 34.8275 165.952 30.4269 162.652C27.1721 160.21 27.1949 155.32 30.4728 152.909L45.8956 142.25L59.3887 152.249ZM224.915 152.909C228.193 155.32 228.216 160.21 224.961 162.652C220.56 165.952 214.49 165.879 210.17 162.474L195.999 152.249L209.492 142.25L224.915 152.909Z" fill="#555555"/>
</svg>
